<svg xmlns="http://www.w3.org/2000/svg" style="display:none">
<!-- Shield/Lock - for encryption tab, header logo -->
<symbol id="icon-shield" viewBox="0 0 24 24" fill="none" stroke="currentColor" stroke-width="2" stroke-linecap="round" stroke-linejoin="round">
  <path d="M12 22s8-4 8-10V5l-8-3-8 3v7c0 6 8 10 8 10z"/>
</symbol>
<!-- Document/Pen - for steganography tab -->
<symbol id="icon-file-text" viewBox="0 0 24 24" fill="none" stroke="currentColor" stroke-width="2" stroke-linecap="round" stroke-linejoin="round">
  <path d="M14 2H6a2 2 0 0 0-2 2v16a2 2 0 0 0 2 2h12a2 2 0 0 0 2-2V8z"/>
  <polyline points="14 2 14 8 20 8"/>
  <line x1="16" y1="13" x2="8" y2="13"/>
  <line x1="16" y1="17" x2="8" y2="17"/>
  <polyline points="10 9 9 9 8 9"/>
</symbol>
<!-- Eye-off - for invisible mode -->
<symbol id="icon-eye-off" viewBox="0 0 24 24" fill="none" stroke="currentColor" stroke-width="2" stroke-linecap="round" stroke-linejoin="round">
  <path d="M17.94 17.94A10.07 10.07 0 0 1 12 20c-7 0-11-8-11-8a18.45 18.45 0 0 1 5.06-5.94M9.9 4.24A9.12 9.12 0 0 1 12 4c7 0 11 8 11 8a18.5 18.5 0 0 1-2.16 3.19m-6.72-1.07a3 3 0 1 1-4.24-4.24"/>
  <line x1="1" y1="1" x2="23" y2="23"/>
</symbol>
<!-- Text/Type - for base64 -->
<symbol id="icon-type" viewBox="0 0 24 24" fill="none" stroke="currentColor" stroke-width="2" stroke-linecap="round" stroke-linejoin="round">
  <polyline points="4 7 4 4 20 4 20 7"/>
  <line x1="9" y1="20" x2="15" y2="20"/>
  <line x1="12" y1="4" x2="12" y2="20"/>
</symbol>
<!-- Box/Archive - for compression -->
<symbol id="icon-archive" viewBox="0 0 24 24" fill="none" stroke="currentColor" stroke-width="2" stroke-linecap="round" stroke-linejoin="round">
  <polyline points="21 8 21 21 3 21 3 8"/>
  <rect x="1" y="3" width="22" height="5"/>
  <line x1="10" y1="12" x2="14" y2="12"/>
</symbol>
<!-- Smiley - for emoji mode -->
<symbol id="icon-smile" viewBox="0 0 24 24" fill="none" stroke="currentColor" stroke-width="2" stroke-linecap="round" stroke-linejoin="round">
  <circle cx="12" cy="12" r="10"/>
  <path d="M8 14s1.5 2 4 2 4-2 4-2"/>
  <line x1="9" y1="9" x2="9.01" y2="9"/>
  <line x1="15" y1="9" x2="15.01" y2="9"/>
</symbol>
<!-- Languages/Globe - for chinese/ideographs -->
<symbol id="icon-globe" viewBox="0 0 24 24" fill="none" stroke="currentColor" stroke-width="2" stroke-linecap="round" stroke-linejoin="round">
  <circle cx="12" cy="12" r="10"/>
  <line x1="2" y1="12" x2="22" y2="12"/>
  <path d="M12 2a15.3 15.3 0 0 1 4 10 15.3 15.3 0 0 1-4 10 15.3 15.3 0 0 1-4-10 15.3 15.3 0 0 1 4-10z"/>
</symbol>
<!-- Keyboard - for layout switch -->
<symbol id="icon-keyboard" viewBox="0 0 24 24" fill="none" stroke="currentColor" stroke-width="2" stroke-linecap="round" stroke-linejoin="round">
  <rect x="2" y="4" width="20" height="16" rx="2"/>
  <line x1="6" y1="8" x2="6.01" y2="8"/>
  <line x1="10" y1="8" x2="10.01" y2="8"/>
  <line x1="14" y1="8" x2="14.01" y2="8"/>
  <line x1="18" y1="8" x2="18.01" y2="8"/>
  <line x1="6" y1="12" x2="6.01" y2="12"/>
  <line x1="10" y1="12" x2="10.01" y2="12"/>
  <line x1="14" y1="12" x2="14.01" y2="12"/>
  <line x1="18" y1="12" x2="18.01" y2="12"/>
  <line x1="8" y1="16" x2="16" y2="16"/>
</symbol>
<!-- Lock-closed - for AES-256 -->
<symbol id="icon-lock" viewBox="0 0 24 24" fill="none" stroke="currentColor" stroke-width="2" stroke-linecap="round" stroke-linejoin="round">
  <rect x="3" y="11" width="18" height="11" rx="2" ry="2"/>
  <path d="M7 11V7a5 5 0 0 1 10 0v4"/>
</symbol>
<!-- Lock-open - for decode -->
<symbol id="icon-unlock" viewBox="0 0 24 24" fill="none" stroke="currentColor" stroke-width="2" stroke-linecap="round" stroke-linejoin="round">
  <rect x="3" y="11" width="18" height="11" rx="2" ry="2"/>
  <path d="M7 11V7a5 5 0 0 1 9.9-1"/>
</symbol>
<!-- Wrench - for recovery -->
<symbol id="icon-wrench" viewBox="0 0 24 24" fill="none" stroke="currentColor" stroke-width="2" stroke-linecap="round" stroke-linejoin="round">
  <path d="M14.7 6.3a1 1 0 0 0 0 1.4l1.6 1.6a1 1 0 0 0 1.4 0l3.77-3.77a6 6 0 0 1-7.94 7.94l-6.91 6.91a2.12 2.12 0 0 1-3-3l6.91-6.91a6 6 0 0 1 7.94-7.94l-3.76 3.76z"/>
</symbol>
<!-- Gear - for settings -->
<symbol id="icon-settings" viewBox="0 0 24 24" fill="none" stroke="currentColor" stroke-width="2" stroke-linecap="round" stroke-linejoin="round">
  <circle cx="12" cy="12" r="3"/>
  <path d="M19.4 15a1.65 1.65 0 0 0 .33 1.82l.06.06a2 2 0 0 1 0 2.83 2 2 0 0 1-2.83 0l-.06-.06a1.65 1.65 0 0 0-1.82-.33 1.65 1.65 0 0 0-1 1.51V21a2 2 0 0 1-2 2 2 2 0 0 1-2-2v-.09A1.65 1.65 0 0 0 9 19.4a1.65 1.65 0 0 0-1.82.33l-.06.06a2 2 0 0 1-2.83 0 2 2 0 0 1 0-2.83l.06-.06A1.65 1.65 0 0 0 4.68 15a1.65 1.65 0 0 0-1.51-1H3a2 2 0 0 1-2-2 2 2 0 0 1 2-2h.09A1.65 1.65 0 0 0 4.6 9a1.65 1.65 0 0 0-.33-1.82l-.06-.06a2 2 0 0 1 0-2.83 2 2 0 0 1 2.83 0l.06.06A1.65 1.65 0 0 0 9 4.68a1.65 1.65 0 0 0 1-1.51V3a2 2 0 0 1 2-2 2 2 0 0 1 2 2v.09a1.65 1.65 0 0 0 1 1.51 1.65 1.65 0 0 0 1.82-.33l.06-.06a2 2 0 0 1 2.83 0 2 2 0 0 1 0 2.83l-.06.06A1.65 1.65 0 0 0 19.4 9a1.65 1.65 0 0 0 1.51 1H21a2 2 0 0 1 2 2 2 2 0 0 1-2 2h-.09a1.65 1.65 0 0 0-1.51 1z"/>
</symbol>
<!-- Clipboard - for copy -->
<symbol id="icon-copy" viewBox="0 0 24 24" fill="none" stroke="currentColor" stroke-width="2" stroke-linecap="round" stroke-linejoin="round">
  <rect x="9" y="9" width="13" height="13" rx="2" ry="2"/>
  <path d="M5 15H4a2 2 0 0 1-2-2V4a2 2 0 0 1 2-2h9a2 2 0 0 1 2 2v1"/>
</symbol>
<!-- Eye - for password toggle -->
<symbol id="icon-eye" viewBox="0 0 24 24" fill="none" stroke="currentColor" stroke-width="2" stroke-linecap="round" stroke-linejoin="round">
  <path d="M1 12s4-8 11-8 11 8 11 8-4 8-11 8-11-8-11-8z"/>
  <circle cx="12" cy="12" r="3"/>
</symbol>
<!-- Send/Arrow-up - for send button -->
<symbol id="icon-send" viewBox="0 0 24 24" fill="none" stroke="currentColor" stroke-width="2" stroke-linecap="round" stroke-linejoin="round">
  <line x1="22" y1="2" x2="11" y2="13"/>
  <polygon points="22 2 15 22 11 13 2 9 22 2"/>
</symbol>
<!-- Message circle - for empty state -->
<symbol id="icon-message" viewBox="0 0 24 24" fill="none" stroke="currentColor" stroke-width="2" stroke-linecap="round" stroke-linejoin="round">
  <path d="M21 11.5a8.38 8.38 0 0 1-.9 3.8 8.5 8.5 0 0 1-7.6 4.7 8.38 8.38 0 0 1-3.8-.9L3 21l1.9-5.7a8.38 8.38 0 0 1-.9-3.8 8.5 8.5 0 0 1 4.7-7.6 8.38 8.38 0 0 1 3.8-.9h.5a8.48 8.48 0 0 1 8 8v.5z"/>
</symbol>
<!-- Trash - for delete -->
<symbol id="icon-trash" viewBox="0 0 24 24" fill="none" stroke="currentColor" stroke-width="2" stroke-linecap="round" stroke-linejoin="round">
  <polyline points="3 6 5 6 21 6"/>
  <path d="M19 6v14a2 2 0 0 1-2 2H7a2 2 0 0 1-2-2V6m3 0V4a2 2 0 0 1 2-2h4a2 2 0 0 1 2 2v2"/>
</symbol>
<!-- X/Close - for close buttons -->
<symbol id="icon-x" viewBox="0 0 24 24" fill="none" stroke="currentColor" stroke-width="2" stroke-linecap="round" stroke-linejoin="round">
  <line x1="18" y1="6" x2="6" y2="18"/>
  <line x1="6" y1="6" x2="18" y2="18"/>
</symbol>
<!-- Plus - for add -->
<symbol id="icon-plus" viewBox="0 0 24 24" fill="none" stroke="currentColor" stroke-width="2" stroke-linecap="round" stroke-linejoin="round">
  <line x1="12" y1="5" x2="12" y2="19"/>
  <line x1="5" y1="12" x2="19" y2="12"/>
</symbol>
<!-- Bridge/Link - for bridge API -->
<symbol id="icon-bridge" viewBox="0 0 24 24" fill="none" stroke="currentColor" stroke-width="2" stroke-linecap="round" stroke-linejoin="round">
  <path d="M10 13a5 5 0 0 0 7.54.54l3-3a5 5 0 0 0-7.07-7.07l-1.72 1.71"/>
  <path d="M14 11a5 5 0 0 0-7.54-.54l-3 3a5 5 0 0 0 7.07 7.07l1.71-1.71"/>
</symbol>
<!-- Check - for success -->
<symbol id="icon-check" viewBox="0 0 24 24" fill="none" stroke="currentColor" stroke-width="2" stroke-linecap="round" stroke-linejoin="round">
  <polyline points="20 6 9 17 4 12"/>
</symbol>
<!-- Alert-triangle - for warning -->
<symbol id="icon-alert" viewBox="0 0 24 24" fill="none" stroke="currentColor" stroke-width="2" stroke-linecap="round" stroke-linejoin="round">
  <path d="M10.29 3.86L1.82 18a2 2 0 0 0 1.71 3h16.94a2 2 0 0 0 1.71-3L13.71 3.86a2 2 0 0 0-3.42 0z"/>
  <line x1="12" y1="9" x2="12" y2="13"/>
  <line x1="12" y1="17" x2="12.01" y2="17"/>
</symbol>
<!-- Zap - for encrypt action -->
<symbol id="icon-zap" viewBox="0 0 24 24" fill="none" stroke="currentColor" stroke-width="2" stroke-linecap="round" stroke-linejoin="round">
  <polygon points="13 2 3 14 12 14 11 22 21 10 12 10 13 2"/>
</symbol>
<!-- Search/Scan - for auto-detect -->
<symbol id="icon-scan" viewBox="0 0 24 24" fill="none" stroke="currentColor" stroke-width="2" stroke-linecap="round" stroke-linejoin="round">
  <circle cx="11" cy="11" r="8"/>
  <line x1="21" y1="21" x2="16.65" y2="16.65"/>
</symbol>
<!-- Sliders - for channel settings -->
<symbol id="icon-sliders" viewBox="0 0 24 24" fill="none" stroke="currentColor" stroke-width="2" stroke-linecap="round" stroke-linejoin="round">
  <line x1="4" y1="21" x2="4" y2="14"/>
  <line x1="4" y1="10" x2="4" y2="3"/>
  <line x1="12" y1="21" x2="12" y2="12"/>
  <line x1="12" y1="8" x2="12" y2="3"/>
  <line x1="20" y1="21" x2="20" y2="16"/>
  <line x1="20" y1="12" x2="20" y2="3"/>
  <line x1="1" y1="14" x2="7" y2="14"/>
  <line x1="9" y1="8" x2="15" y2="8"/>
  <line x1="17" y1="16" x2="23" y2="16"/>
</symbol>
<!-- Image - for images tab -->
<symbol id="icon-image" viewBox="0 0 24 24" fill="none" stroke="currentColor" stroke-width="2" stroke-linecap="round" stroke-linejoin="round">
  <rect x="3" y="3" width="18" height="18" rx="2" ry="2"/>
  <circle cx="8.5" cy="8.5" r="1.5"/>
  <polyline points="21 15 16 10 5 21"/>
</symbol>
<!-- Upload -->
<symbol id="icon-upload" viewBox="0 0 24 24" fill="none" stroke="currentColor" stroke-width="2" stroke-linecap="round" stroke-linejoin="round">
  <path d="M21 15v4a2 2 0 0 1-2 2H5a2 2 0 0 1-2-2v-4"/>
  <polyline points="17 8 12 3 7 8"/>
  <line x1="12" y1="3" x2="12" y2="15"/>
</symbol>
<!-- Download -->
<symbol id="icon-download" viewBox="0 0 24 24" fill="none" stroke="currentColor" stroke-width="2" stroke-linecap="round" stroke-linejoin="round">
  <path d="M21 15v4a2 2 0 0 1-2 2H5a2 2 0 0 1-2-2v-4"/>
  <polyline points="7 10 12 15 17 10"/>
  <line x1="12" y1="15" x2="12" y2="3"/>
</symbol>
<!-- Search -->
<symbol id="icon-search" viewBox="0 0 24 24" fill="none" stroke="currentColor" stroke-width="2" stroke-linecap="round" stroke-linejoin="round">
  <circle cx="11" cy="11" r="8"/>
  <line x1="21" y1="21" x2="16.65" y2="16.65"/>
</symbol>
<!-- Paperclip / File attach -->
<symbol id="icon-paperclip" viewBox="0 0 24 24" fill="none" stroke="currentColor" stroke-width="2" stroke-linecap="round" stroke-linejoin="round">
  <path d="m21.44 11.05-9.19-9.19a6 6 0 0 0-8.49 8.49l9.19 9.19a4 4 0 0 0 5.66-5.66l-9.2-9.19a2 2 0 0 0-2.83 2.83l8.49 8.48"/>
</symbol>
<!-- File -->
<symbol id="icon-file" viewBox="0 0 24 24" fill="none" stroke="currentColor" stroke-width="2" stroke-linecap="round" stroke-linejoin="round">
  <path d="M13 2H6a2 2 0 0 0-2 2v16a2 2 0 0 0 2 2h12a2 2 0 0 0 2-2V9z"/>
  <polyline points="13 2 13 9 20 9"/>
</symbol>
<!-- BarChart (for stress tests) -->
<symbol id="icon-bar-chart" viewBox="0 0 24 24" fill="none" stroke="currentColor" stroke-width="2" stroke-linecap="round" stroke-linejoin="round">
  <line x1="12" y1="20" x2="12" y2="10"/>
  <line x1="18" y1="20" x2="18" y2="4"/>
  <line x1="6" y1="20" x2="6" y2="16"/>
</symbol>
</svg>
